<?xml version="1.0" standalone="no"?>
<!DOCTYPE svg PUBLIC "-//W3C//DTD SVG 20010904//EN"
 "http://www.w3.org/TR/2001/REC-SVG-20010904/DTD/svg10.dtd">
<svg version="1.0" xmlns="http://www.w3.org/2000/svg"
 width="534.000000pt" height="534.000000pt" viewBox="0 0 534.000000 534.000000"
 preserveAspectRatio="xMidYMid meet">
<metadata>
Created by potrace 1.14, written by Peter Selinger 2001-2017
</metadata>
<g transform="translate(0.000000,534.000000) scale(0.100000,-0.100000)"
fill="#000000" stroke="none">
<path d="M2425 5130 c-6 -9 -4 -11 5 -5 9 5 11 4 6 -4 -6 -9 -11 -9 -24 1 -12
10 -14 10 -8 1 4 -7 3 -13 -3 -13 -5 0 -12 6 -14 13 -4 10 -6 10 -6 0 -1 -7
-10 -13 -21 -13 -11 0 -20 -6 -20 -12 0 -9 -3 -8 -10 2 -8 12 -10 12 -16 -3
-5 -14 -9 -15 -23 -5 -9 7 -13 8 -8 3 10 -12 -22 -45 -39 -38 -8 3 -14 0 -14
-7 0 -6 -4 -8 -10 -5 -5 3 -10 2 -10 -3 0 -6 -7 -13 -16 -16 -10 -4 -13 -2 -9
7 4 6 0 4 -8 -5 -11 -14 -16 -15 -27 -5 -10 9 -11 9 -6 0 4 -7 2 -13 -4 -13
-6 0 -8 -5 -4 -12 5 -8 0 -7 -11 2 -10 8 -16 11 -13 5 3 -5 0 -16 -8 -23 -8
-7 -14 -8 -14 -2 0 5 -4 10 -10 10 -5 0 -10 -6 -10 -12 0 -7 -11 -14 -25 -14
-16 -1 -23 2 -18 10 3 6 -3 3 -14 -7 -12 -10 -35 -19 -52 -19 -17 -1 -28 -4
-26 -8 7 -11 -24 -22 -37 -13 -6 3 -8 1 -4 -5 3 -6 -3 -13 -14 -17 -11 -4 -18
-10 -15 -15 7 -11 -21 -21 -42 -14 -15 5 -16 4 -3 -5 14 -10 7 -16 -14 -12 -5
1 -6 -5 -3 -14 5 -10 0 -15 -13 -15 -11 0 -20 -5 -20 -11 0 -6 -7 -8 -16 -5
-8 3 -13 2 -9 -3 8 -14 -5 -40 -23 -43 -9 -2 -17 -12 -17 -23 0 -11 -6 -19
-13 -17 -6 1 -11 -1 -11 -5 4 -22 -2 -33 -13 -28 -7 4 -4 -1 6 -9 18 -15 19
-16 2 -16 -12 0 -16 -5 -13 -14 4 -10 0 -13 -14 -11 -13 3 -17 0 -12 -8 11
-18 12 -37 2 -37 -5 0 -9 -11 -9 -24 0 -14 -5 -28 -10 -31 -6 -3 -8 -17 -6
-30 3 -14 0 -28 -6 -31 -7 -5 -8 -2 -3 6 5 9 4 11 -4 6 -9 -6 -9 -11 -1 -21 8
-9 7 -17 -4 -27 -9 -9 -11 -20 -6 -28 6 -9 2 -19 -11 -28 -14 -9 -17 -18 -10
-25 17 -21 16 -26 -4 -42 -11 -9 -14 -14 -7 -10 7 4 12 0 12 -9 0 -9 -4 -16
-10 -16 -5 0 -10 -5 -10 -11 0 -5 5 -7 12 -3 8 5 8 3 2 -7 -13 -20 -19 -105
-10 -147 3 -12 1 -20 -3 -17 -5 3 -12 -2 -15 -11 -3 -8 -2 -12 4 -9 6 3 10 1
10 -4 0 -6 -5 -11 -10 -11 -7 0 -9 -16 -6 -40 3 -30 0 -43 -12 -51 -16 -10
-16 -10 0 -5 12 3 16 -1 15 -15 -1 -10 -5 -19 -10 -19 -4 0 -5 -5 -2 -11 4 -5
8 -35 8 -65 2 -39 -2 -54 -11 -54 -7 0 -10 -5 -7 -10 4 -6 9 -8 13 -6 4 2 7
-7 7 -20 0 -13 -4 -24 -10 -24 -5 0 -3 -5 5 -10 13 -8 12 -10 -3 -10 -18 0
-18 -1 -1 -17 16 -17 16 -18 1 -21 -10 -2 -15 -8 -11 -13 3 -5 11 -6 17 -2 8
4 8 2 -1 -9 -10 -13 -10 -17 3 -22 12 -4 14 -10 5 -25 -7 -14 -7 -22 2 -27 7
-5 8 -3 3 7 -5 8 -4 10 0 6 12 -10 15 -38 4 -32 -5 4 -6 -1 -3 -9 3 -9 10 -16
15 -16 4 0 5 -7 2 -17 -4 -10 -2 -14 4 -10 7 5 9 0 6 -12 -3 -10 0 -22 6 -25
5 -4 7 -14 4 -23 -4 -9 -2 -14 3 -10 5 3 10 -3 10 -13 0 -10 -4 -16 -8 -14 -4
3 -8 1 -8 -4 0 -5 -9 -12 -20 -15 -11 -3 -18 -2 -15 3 3 4 -2 10 -10 13 -10 4
-12 1 -7 -11 6 -16 4 -16 -20 0 -24 16 -26 16 -46 -10 -12 -15 -20 -20 -18
-12 1 8 1 12 -1 7 -3 -4 -9 -5 -14 -2 -5 4 -6 -1 -3 -9 5 -12 0 -16 -17 -16
-14 0 -19 -3 -12 -8 8 -5 3 -16 -14 -37 l-26 -30 17 30 17 30 -20 -24 c-12
-12 -19 -27 -16 -31 3 -5 1 -11 -5 -15 -6 -4 -8 -10 -6 -14 3 -4 7 -19 10 -34
3 -19 0 -27 -10 -27 -8 0 -12 -5 -9 -10 4 -6 12 -7 18 -3 7 4 6 0 -2 -10 -7
-9 -9 -17 -3 -17 15 0 23 -28 10 -36 -6 -4 -8 -3 -4 4 3 6 2 13 -3 16 -5 4 -8
-1 -7 -10 1 -8 8 -19 15 -24 11 -6 11 -9 0 -13 -10 -4 -10 -6 -1 -6 6 -1 12
-13 12 -28 0 -22 2 -25 10 -13 8 12 10 9 10 -12 0 -16 8 -33 19 -40 10 -6 17
-18 14 -25 -3 -7 0 -13 7 -13 6 0 8 -4 5 -10 -3 -5 -1 -10 5 -10 6 0 8 -4 5
-10 -3 -5 -1 -10 5 -10 7 0 10 -7 7 -15 -7 -18 9 -30 17 -13 3 7 3 3 0 -9 -4
-16 -1 -23 9 -23 8 0 14 -8 13 -17 0 -10 6 -18 14 -18 8 -1 14 -6 12 -13 -1
-7 3 -12 9 -12 6 0 8 -7 5 -16 -3 -8 -2 -12 4 -9 6 3 10 0 10 -8 0 -8 8 -21
18 -28 16 -13 16 -13 2 6 -14 19 -14 19 3 6 14 -11 15 -16 5 -29 -7 -9 -8 -13
-3 -10 6 4 17 3 25 -3 10 -6 11 -9 3 -9 -8 0 -5 -8 7 -20 11 -11 26 -20 34
-20 8 0 16 -7 20 -15 6 -16 26 -16 38 0 4 6 8 2 8 -8 0 -17 1 -17 16 -3 19 20
25 20 18 2 -3 -7 2 -16 12 -20 13 -5 14 -9 4 -21 -10 -12 -10 -15 0 -15 8 0
11 -10 8 -29 -3 -18 0 -28 6 -24 5 4 7 -1 3 -10 -4 -12 -1 -17 10 -17 14 0 14
-2 -3 -16 -10 -8 -14 -13 -9 -10 6 2 17 -4 24 -16 7 -11 8 -17 2 -13 -6 3 -11
2 -11 -3 0 -6 8 -13 17 -16 15 -6 15 -8 3 -16 -13 -8 -12 -10 2 -10 12 0 15
-5 11 -17 -5 -12 -3 -14 8 -9 8 4 5 0 -6 -9 -19 -16 -19 -16 -1 -13 10 2 21
-3 24 -11 2 -8 0 -11 -5 -8 -5 3 -9 -3 -9 -13 0 -15 3 -17 15 -7 12 10 13 9 2
-12 -7 -13 -8 -21 -3 -17 14 9 21 -15 10 -36 -5 -10 -5 -18 0 -18 5 0 9 -7 9
-15 0 -12 -3 -12 -16 -2 -13 10 -12 7 2 -15 9 -15 17 -31 17 -35 0 -4 -5 -1
-10 7 -9 13 -10 13 -10 -1 0 -8 6 -21 13 -28 10 -10 8 -15 -7 -27 -19 -14 -19
-14 -1 -14 15 0 16 -3 7 -12 -7 -7 -12 -17 -12 -22 0 -6 5 -4 10 4 7 11 8 9 6
-11 -1 -13 -5 -30 -9 -36 -4 -6 -3 -14 3 -18 13 -8 7 -45 -11 -56 -11 -7 -10
-9 6 -9 15 0 16 -3 7 -12 -7 -7 -12 -17 -12 -22 0 -6 5 -4 10 4 7 11 8 8 6
-13 -1 -15 -6 -30 -9 -34 -4 -3 -2 -12 4 -20 9 -10 8 -17 -1 -28 -9 -11 -9
-15 -1 -15 7 0 9 -5 6 -10 -4 -6 -12 -7 -18 -3 -7 4 -5 -2 3 -12 14 -17 13
-18 -2 -12 -13 4 -15 2 -11 -10 4 -10 2 -14 -4 -10 -6 4 -19 0 -27 -9 -12 -11
-16 -12 -16 -2 0 9 -3 10 -8 2 -4 -6 -17 -14 -29 -18 -13 -4 -22 -13 -20 -19
1 -7 -4 -11 -11 -9 -8 1 -11 -2 -8 -7 4 -5 -2 -14 -11 -20 -10 -6 -14 -11 -9
-11 6 0 1 -7 -10 -16 -10 -8 -12 -12 -4 -8 9 4 7 -2 -5 -13 -14 -15 -24 -18
-33 -10 -9 7 -11 5 -6 -9 4 -10 4 -16 -1 -12 -4 4 -14 0 -21 -10 -7 -9 -17
-18 -23 -18 -6 -1 -16 -2 -22 -3 -5 0 -8 -5 -5 -9 2 -4 -4 -14 -16 -21 -11 -7
-17 -8 -14 -3 3 5 -3 12 -15 15 -17 5 -18 3 -8 -10 11 -12 10 -14 -2 -12 -19
3 -51 -11 -67 -30 -8 -9 -11 -11 -8 -4 4 6 2 14 -3 17 -5 3 -11 -4 -14 -15 -4
-14 -11 -20 -21 -16 -11 4 -13 1 -9 -11 6 -15 5 -15 -10 -3 -10 8 -20 11 -24
7 -3 -3 -1 -6 6 -6 7 0 9 -5 6 -10 -4 -6 -11 -8 -16 -5 -5 4 -9 1 -9 -5 0 -6
-5 -8 -12 -4 -8 5 -9 1 -4 -12 6 -15 5 -16 -5 -7 -10 10 -15 9 -26 -5 -8 -9
-12 -12 -9 -6 3 6 -1 11 -9 11 -8 0 -13 -5 -12 -11 1 -6 -8 -11 -20 -10 -12 0
-20 -3 -17 -7 2 -4 0 -10 -6 -14 -5 -3 -10 -1 -10 6 0 7 -3 9 -7 5 -5 -4 -8
-13 -8 -19 0 -15 -27 -16 -37 -2 -5 6 -8 2 -8 -8 0 -10 -4 -16 -9 -13 -5 3
-14 -1 -21 -9 -6 -7 -17 -12 -25 -9 -7 3 -16 0 -20 -6 -6 -9 -10 -9 -16 1 -7
11 -9 10 -9 -4 0 -10 -4 -16 -9 -12 -5 3 -12 1 -16 -5 -9 -15 -27 -12 -20 3 4
6 -2 1 -13 -12 -15 -18 -21 -21 -25 -10 -4 10 -6 9 -6 -4 -1 -10 -6 -15 -11
-12 -6 4 -17 1 -25 -5 -8 -7 -15 -9 -15 -4 0 5 -7 0 -15 -10 -11 -14 -15 -16
-15 -5 -1 10 -3 10 -11 -3 -5 -9 -16 -15 -23 -12 -8 3 -17 0 -22 -7 -5 -8 -3
-10 6 -4 8 5 11 4 7 -2 -3 -5 -20 -9 -36 -8 -18 1 -28 -2 -24 -8 4 -6 -2 -8
-15 -5 -15 4 -19 2 -15 -8 3 -8 -1 -14 -8 -14 -7 0 -21 -8 -32 -18 -11 -9 -17
-11 -13 -4 4 7 1 12 -8 12 -9 0 -15 -5 -13 -12 1 -6 -6 -14 -17 -16 -13 -3
-16 0 -11 9 5 8 4 10 -4 5 -6 -4 -9 -11 -6 -16 3 -4 -3 -14 -12 -21 -12 -10
-14 -10 -9 -1 4 6 3 12 -3 12 -6 0 -15 -9 -21 -20 -6 -11 -19 -20 -30 -20 -10
0 -25 -7 -33 -15 -12 -11 -17 -12 -20 -2 -4 7 -6 6 -6 -4 -1 -9 -8 -20 -17
-23 -15 -6 -15 -4 -3 10 13 16 12 16 -8 4 -12 -8 -19 -18 -16 -24 4 -5 -1 -7
-11 -3 -10 4 -19 1 -22 -7 -3 -9 -16 -13 -32 -11 -15 2 -21 2 -14 -1 6 -3 12
-10 12 -15 0 -6 -5 -7 -10 -4 -6 3 -17 -1 -26 -9 -9 -9 -21 -13 -27 -9 -7 4
-8 0 -4 -11 4 -9 3 -14 -2 -11 -5 3 -12 1 -16 -5 -4 -7 -12 -7 -25 0 -16 9
-18 8 -14 -5 5 -11 2 -14 -12 -8 -11 4 -15 3 -10 -5 5 -9 -23 -33 -44 -36 -3
-1 -4 -4 -3 -8 2 -4 -6 -5 -17 -3 -13 3 -17 -1 -13 -11 3 -8 -1 -15 -11 -15
-30 -3 -34 -4 -43 -13 -5 -5 -2 -6 7 -2 9 5 8 2 -2 -7 -10 -8 -14 -18 -10 -23
4 -4 0 -3 -10 4 -12 10 -18 10 -24 1 -4 -8 -3 -9 4 -5 7 4 12 2 12 -3 0 -6 -6
-11 -13 -11 -8 0 -24 -12 -38 -27 l-24 -28 26 20 c14 11 10 5 -8 -13 l-33 -32
0 -260 0 -260 2670 0 2671 0 -4 347 c-2 192 -6 353 -7 359 -2 6 -9 11 -17 11
-10 0 -10 -3 0 -16 11 -14 10 -14 -5 -3 -10 8 -17 17 -16 20 2 18 -3 35 -8 29
-8 -7 -54 34 -54 49 0 6 -8 18 -17 25 -17 13 -17 12 -4 -6 14 -19 14 -19 -5
-2 -16 15 -17 19 -4 28 11 8 9 9 -9 4 -20 -6 -23 -4 -17 10 6 16 4 16 -11 4
-9 -8 -14 -9 -10 -3 4 7 0 17 -8 24 -8 7 -15 9 -15 4 -1 -5 -8 2 -16 16 -8 14
-13 17 -10 8 3 -12 1 -15 -9 -11 -8 3 -12 10 -8 16 4 6 0 8 -11 4 -10 -4 -15
-3 -11 3 3 5 -5 14 -17 21 -22 12 -22 11 -8 -6 12 -16 9 -15 -17 3 -18 13 -35
28 -39 34 -4 7 -9 6 -15 -3 -6 -11 -12 -10 -27 4 -10 9 -22 14 -27 10 -4 -5
-5 -2 -1 5 6 9 2 12 -10 10 -11 -2 -18 2 -17 8 2 10 -10 14 -50 15 -11 0 -15
5 -10 12 4 7 0 6 -10 -2 -14 -11 -18 -11 -23 4 -5 13 -9 14 -15 3 -7 -10 -9
-9 -9 5 0 10 -6 17 -12 16 -32 -4 -48 2 -49 19 0 14 -2 14 -9 -3 -5 -11 -9
-14 -9 -6 -1 7 -7 11 -16 8 -8 -4 -17 -2 -20 4 -4 5 -12 6 -18 2 -7 -4 -5 2 3
12 14 17 14 18 -7 6 -15 -7 -23 -8 -23 -1 0 5 -5 10 -11 10 -5 0 -7 -6 -4 -12
4 -7 -1 -4 -9 6 -11 14 -16 15 -16 6 0 -9 -5 -8 -16 6 -8 10 -13 12 -9 4 4
-10 2 -9 -8 3 -15 18 -32 24 -22 7 3 -5 1 -10 -5 -10 -6 0 -13 6 -16 14 -3 8
-13 12 -26 8 -16 -4 -19 -2 -13 9 8 12 6 12 -8 0 -12 -9 -17 -10 -17 -2 0 7
-5 9 -10 6 -5 -3 -10 0 -10 7 0 9 -3 9 -10 -2 -8 -13 -10 -12 -10 3 0 9 -5 17
-11 17 -5 0 -7 -5 -3 -11 5 -8 1 -8 -14 0 -12 6 -24 16 -27 21 -3 6 -11 10
-18 10 -6 0 -2 -7 9 -15 18 -14 18 -14 -3 -8 -13 3 -23 10 -23 15 0 6 -7 8
-15 4 -8 -3 -21 2 -30 10 -10 11 -15 12 -15 3 0 -7 -10 -1 -22 12 -14 17 -19
19 -15 6 8 -21 -9 -23 -17 -1 -5 13 -9 14 -21 4 -12 -10 -15 -10 -15 3 0 10
-6 13 -20 10 -11 -3 -20 -1 -20 5 0 6 -8 8 -19 5 -10 -2 -25 3 -34 11 -16 17
-32 22 -23 8 3 -5 -1 -9 -9 -9 -8 0 -12 4 -9 9 3 4 -4 8 -15 8 -12 0 -21 5
-21 11 0 5 -5 7 -11 4 -6 -4 -17 1 -25 11 -9 11 -13 13 -9 6 4 -7 0 -12 -9
-12 -9 0 -16 6 -16 13 0 8 -10 13 -22 13 -15 -1 -22 4 -20 13 3 12 1 12 -14 0
-15 -12 -17 -12 -9 0 6 11 4 13 -8 8 -10 -4 -17 -1 -17 6 0 9 -3 8 -9 -1 -6
-11 -10 -10 -15 4 -6 16 -8 16 -16 4 -8 -12 -10 -11 -10 5 0 17 -2 17 -10 5
-6 -10 -10 -11 -10 -3 0 7 -3 12 -7 12 -22 -4 -33 2 -27 14 5 7 0 6 -11 -3
-11 -9 -16 -10 -11 -2 5 8 0 12 -14 12 -17 0 -20 4 -14 22 6 21 6 21 -10 5
-19 -19 -31 -23 -21 -6 4 6 -2 13 -14 16 -11 3 -18 9 -15 14 3 5 1 9 -4 9 -4
0 -17 8 -28 18 -17 16 -49 34 -65 36 -4 1 -15 10 -25 21 -11 12 -15 15 -10 7
7 -10 0 -9 -27 4 -20 9 -34 21 -31 26 3 4 -2 8 -10 8 -9 0 -16 7 -16 16 0 8
-4 13 -8 10 -4 -2 -8 4 -8 14 0 15 3 17 15 7 11 -8 10 -3 -3 17 -18 28 -18 30
0 43 17 13 17 13 -1 13 -15 0 -16 3 -7 12 7 7 12 17 12 22 0 6 -5 4 -10 -4 -7
-12 -9 -10 -7 7 0 12 5 19 9 17 4 -3 8 -1 8 5 0 5 -4 13 -10 16 -5 3 -10 12
-10 18 0 7 4 6 10 -3 9 -13 10 -13 10 1 0 8 -6 21 -12 28 -11 10 -9 15 6 27
19 13 19 14 2 14 -15 0 -16 3 -6 15 7 9 10 18 6 22 -3 3 -6 0 -6 -7 0 -7 -3
-11 -6 -8 -3 4 3 19 13 35 17 27 17 28 -2 13 -17 -13 -18 -13 -10 0 8 13 15
59 16 113 0 12 5 17 15 13 18 -7 18 -1 -2 18 -14 15 -14 16 2 16 13 0 14 3 4
15 -10 12 -9 16 4 21 9 3 13 11 9 17 -4 6 0 8 10 4 9 -3 19 -1 23 5 4 6 3 8
-4 4 -7 -4 -10 1 -9 14 1 11 5 20 10 20 4 0 6 4 2 9 -3 6 3 14 12 20 14 8 15
11 3 11 -12 1 -12 2 2 10 9 6 15 20 14 35 -2 13 2 23 8 22 6 -1 10 8 9 21 -2
13 4 25 12 29 12 4 13 9 4 19 -9 11 -8 14 5 14 9 0 16 5 16 11 0 5 -4 7 -10 4
-6 -4 -7 1 -3 12 9 26 24 43 37 43 7 0 6 -4 -2 -9 -11 -7 -10 -9 3 -14 9 -4
14 -3 11 2 -3 5 8 14 24 21 16 7 27 17 23 23 -4 6 2 8 15 5 12 -4 20 -3 17 2
-9 14 20 60 34 55 11 -5 12 -3 1 10 -11 13 -11 16 1 13 8 -2 13 4 12 15 0 12
4 16 13 13 9 -4 14 2 14 15 0 17 3 18 21 8 17 -9 20 -8 13 3 -19 29 -11 44 19
39 5 -1 6 3 2 9 -3 6 -12 7 -18 3 -7 -4 -6 0 2 10 7 9 18 14 25 10 6 -4 4 2
-4 12 -8 10 -10 16 -3 12 6 -4 14 -3 18 3 3 5 1 10 -5 10 -6 0 -8 5 -5 10 4 6
11 8 16 5 5 -3 6 1 3 9 -3 9 -1 16 6 16 6 0 8 5 5 10 -3 6 1 10 11 10 14 0 15
2 3 17 -10 11 -10 14 -1 9 7 -4 12 -2 12 4 0 6 5 8 13 4 7 -5 6 0 -3 11 -14
17 -13 18 5 11 11 -4 16 -4 12 0 -4 4 -1 14 6 22 10 13 9 14 -3 7 -13 -8 -13
-6 -2 8 8 9 11 21 7 27 -3 5 -1 10 5 10 6 0 8 5 4 12 -5 8 -2 9 11 4 15 -5 16
-4 6 8 -9 11 -8 17 4 30 12 12 13 16 3 16 -10 0 -9 3 2 10 11 7 11 10 2 10 -7
0 -10 5 -7 10 4 6 12 8 18 4 7 -3 4 1 -5 8 -15 13 -15 15 0 26 9 7 12 10 5 7
-17 -8 -28 16 -12 26 10 6 11 9 2 9 -7 0 -13 9 -13 19 0 11 -5 23 -12 27 -7 5
-8 3 -3 -6 5 -9 4 -11 -3 -6 -7 4 -12 15 -12 24 0 14 -2 14 -9 3 -7 -11 -10
-9 -16 9 -6 18 -9 20 -16 9 -7 -12 -9 -11 -9 1 0 13 -1 13 -10 0 -8 -13 -10
-12 -10 3 0 17 -1 17 -17 1 -16 -15 -17 -15 -23 1 -6 16 -7 16 -23 1 -15 -16
-17 -16 -17 -1 0 9 -4 14 -8 11 -5 -3 -9 2 -9 10 0 9 6 13 15 9 11 -4 12 -2 4
7 -16 20 -16 21 6 63 14 28 17 46 11 57 -6 11 -5 19 1 23 6 4 8 11 5 16 -4 5
-1 9 5 9 7 0 7 7 -1 23 -12 21 -11 21 6 7 17 -14 18 -14 5 9 -11 21 -10 23 3
18 11 -4 14 -2 10 8 -3 8 -8 13 -13 10 -11 -7 1 48 14 64 9 12 8 13 -7 8 -20
-7 -16 3 12 37 9 11 12 17 6 14 -6 -4 -9 29 -8 93 1 57 -3 99 -8 99 -6 0 -5 9
2 22 10 18 9 20 -5 15 -9 -4 -16 -2 -16 3 0 6 5 10 11 10 8 0 7 5 -1 15 -11
13 -10 14 6 9 19 -7 19 -7 0 14 -13 15 -15 22 -6 22 10 0 10 3 0 15 -11 13
-10 14 5 9 15 -6 15 -4 4 14 -11 17 -10 23 2 38 12 16 12 17 -1 10 -8 -4 -6 0
5 9 11 9 20 21 20 28 0 7 8 11 18 11 14 -2 15 1 6 12 -9 11 -8 14 4 14 11 0
14 6 10 15 -3 9 -2 15 3 14 21 -4 28 2 14 11 -11 7 -11 10 -2 10 7 0 10 5 7
10 -3 6 -1 10 4 10 6 0 11 5 11 11 0 5 -3 8 -7 6 -5 -3 -8 6 -8 19 0 13 4 24
8 24 4 0 5 16 1 35 -4 24 -2 41 7 52 10 12 10 14 2 9 -11 -6 -18 5 -10 19 1 2
-7 11 -18 20 -11 9 -14 14 -8 10 9 -4 11 -1 7 10 -4 9 -9 14 -11 11 -3 -3 -11
1 -18 7 -10 9 -10 15 -1 26 8 12 8 13 -1 7 -8 -4 -13 -1 -13 9 0 9 -4 14 -9
10 -5 -3 -13 0 -17 6 -4 7 -3 9 4 5 6 -3 13 -2 17 4 3 5 -1 10 -10 10 -10 0
-13 5 -9 12 5 7 2 9 -9 5 -11 -4 -14 -2 -10 9 3 8 -1 14 -11 14 -9 0 -16 5
-16 10 0 6 -5 10 -11 10 -7 0 -20 10 -30 21 -12 14 -25 19 -35 15 -14 -5 -15
-4 -5 8 11 13 9 15 -8 11 -18 -3 -19 -1 -12 14 7 13 6 18 -4 18 -8 0 -11 -5
-8 -10 3 -6 1 -7 -5 -3 -7 4 -12 17 -12 29 0 18 -2 19 -10 7 -9 -13 -10 -13
-11 0 -1 8 -1 18 0 23 0 4 -6 7 -15 7 -9 0 -12 5 -8 12 5 8 2 9 -10 5 -9 -4
-15 -3 -12 2 3 5 -1 14 -9 21 -13 11 -15 10 -10 -6 4 -13 2 -12 -6 4 -7 12
-17 22 -24 22 -7 0 -20 10 -31 23 -19 22 -19 22 2 4 17 -14 21 -15 21 -2 0 8
-3 13 -5 10 -3 -3 -14 3 -25 12 -11 10 -17 12 -13 6 4 -7 2 -13 -3 -13 -6 0
-11 5 -11 11 0 5 -4 7 -10 4 -9 -6 -14 8 -11 28 1 5 -3 6 -8 3 -14 -9 -42 4
-35 16 4 6 -1 8 -13 4 -13 -4 -25 0 -34 11 -13 17 -13 17 6 3 19 -14 19 -14 6
3 -10 13 -17 15 -27 6 -10 -8 -14 -8 -14 0 0 6 -9 11 -20 11 -11 0 -20 5 -20
11 0 5 5 7 12 3 7 -4 8 -3 4 5 -6 9 -11 9 -22 0 -11 -9 -14 -9 -14 1 0 7 -7
10 -16 6 -8 -3 -12 -2 -9 4 3 6 1 10 -5 10 -6 0 -8 5 -4 12 4 7 3 8 -5 4 -6
-4 -9 -12 -6 -17 3 -5 -1 -6 -9 -3 -9 3 -14 9 -11 13 2 4 -2 8 -10 8 -8 0 -12
-3 -10 -7 6 -10 -48 -5 -65 5 -22 14 -40 15 -41 2 0 -7 -4 -3 -9 8 -8 19 -9
19 -9 1 -1 -20 -1 -20 -17 0 -8 10 -13 14 -10 8 3 -7 -4 -11 -19 -11 -14 0
-25 4 -25 9 0 6 -11 8 -25 6 -20 -4 -23 -3 -14 8 8 10 5 12 -14 8 -15 -2 -32
2 -41 12 -9 8 -16 12 -16 8 0 -3 -8 0 -17 7 -15 12 -16 12 -8 -1 7 -12 6 -13
-6 -4 -19 15 -135 18 -144 4 -5 -8 -11 -8 -21 1 -9 7 -14 8 -14 1 0 -5 -8 -8
-17 -6 -48 9 -112 10 -106 1 4 -6 0 -8 -10 -4 -10 4 -17 1 -17 -6 0 -8 -4 -6
-10 3 -8 13 -10 13 -10 1 0 -11 -4 -10 -13 4 -11 14 -16 15 -22 5z m-835 -750
c0 -5 -5 -10 -11 -10 -5 0 -7 5 -4 10 3 6 8 10 11 10 2 0 4 -4 4 -10z m2020
-1724 c0 -2 -7 -7 -16 -10 -8 -3 -12 -2 -9 4 6 10 25 14 25 6z m-25 -1006 c3
-6 -1 -7 -9 -4 -18 7 -21 14 -7 14 6 0 13 -4 16 -10z m1280 -458 c-3 -3 -11 0
-18 7 -9 10 -8 11 6 5 10 -3 15 -9 12 -12z"/>
<path d="M3793 3915 c0 -8 4 -12 9 -9 5 3 6 10 3 15 -9 13 -12 11 -12 -6z"/>
<path d="M3393 2185 c0 -8 4 -12 9 -9 5 3 6 10 3 15 -9 13 -12 11 -12 -6z"/>
</g>
</svg>
